<svg height="64" viewBox="0 0 32 32" width="64" xmlns="http://www.w3.org/2000/svg"><path d="m15.9375 4.03125c-3.0205.01225-6.0195781.3957344-7.5800781 1.1152344 0 0-3.3574219 1.528375-3.3574219 6.7343746 0 6.197-.0045 13.979375 5.5625 15.484375 2.132.573 3.965453.696328 5.439453.611328 2.675-.151 3.998047-.970703 3.998047-.970703l-.089844-1.976562s-1.733859.611016-3.880859.541015c-2.127-.074999-4.367797-.234624-4.716797-2.890624-.032-.247-.047875-.497094-.046875-.746094 4.507 1.119 8.350203.487375 9.408203.359375 2.954-.359 5.525516-2.211297 5.853516-3.904297.514-2.668.470703-6.507813.470703-6.507813 0-5.2059996-3.351563-6.7343746-3.351563-6.7343746-1.6455-.7685-4.688484-1.1274844-7.708984-1.1152344zm-3.232422 3.9707031c1.034875.02775 2.0575.49075 2.6875 1.46875l.609375 1.0351559.607422-1.0351559c1.265-1.967 4.100219-1.8442656 5.449219-.3222656 1.244 1.4480005.966797 2.3825625.966797 8.8515625v.001953h-2.447266v-5.628906c0-2.6350001-3.359375-2.7367658-3.359375.365234v3.261719h-2.431641v-3.261719c0-3.1019998-3.357421-3.0021872-3.357421-.367187v5.628906h-2.4531255c0-6.474-.2722031-7.414562.9667969-8.8515625.6794996-.766 1.7268436-1.1742344 2.7617186-1.1464844z"/></svg>